<svg width="22" height="22" viewBox="0 0 22 22" fill="none" xmlns="http://www.w3.org/2000/svg">
<path fill-rule="evenodd" clip-rule="evenodd" d="M10.6371 21.6372C16.5119 21.6372 21.2742 16.8748 21.2742 10.9999H18.9104C18.9104 15.5692 15.2063 19.2734 10.6371 19.2734C6.06789 19.2734 2.3638 15.5692 2.3638 10.9999C2.3638 6.43057 6.06789 2.7264 10.6371 2.7264C11.9511 2.7264 13.1937 3.03277 14.2971 3.57797L15.8736 1.73867C14.3277 0.86266 12.5408 0.362549 10.6371 0.362549C4.7624 0.362549 0 5.12505 0 10.9999C0 16.8748 4.7624 21.6372 10.6371 21.6372ZM18.6069 7.06171C19.0436 6.57651 19.0043 5.82919 18.5191 5.39252C18.0339 4.95586 17.2866 4.99519 16.8499 5.48038L10.2401 12.8248L7.92976 10.4995C7.4697 10.0364 6.72137 10.034 6.25831 10.494C5.79525 10.9541 5.79283 11.7025 6.25288 12.1655L9.44407 15.3776C9.67307 15.608 9.98685 15.7341 10.3117 15.7261C10.6365 15.7181 10.9437 15.5767 11.161 15.3352L18.6069 7.06171Z" fill="#84AE52"/>
</svg>
